{
	"asset":{
		"generator":"Khronos glTF Blender I/O v4.0.44",
		"version":"2.0"
	},
	"extensionsUsed":[
		"KHR_materials_specular",
		"KHR_materials_ior"
	],
	"scene":0,
	"scenes":[
		{
			"name":"Scene",
			"nodes":[
				0,
				1
			]
		}
	],
	"nodes":[
		{
			"mesh":0,
			"name":"model",
			"rotation":[
				0.024677645415067673,
				-0.7066760659217834,
				0.7066760063171387,
				0.024677647277712822
			],
			"translation":[
				0,
				1.090000033378601,
				-0.5312144160270691
			]
		},
		{
			"mesh":1,
			"name":"welcome travelleur",
			"rotation":[
				0.7064246535301208,
				0.031053481623530388,
				-0.031053487211465836,
				0.7064245343208313
			],
			"scale":[
				1,
				2.4000003337860107,
				1
			],
			"translation":[
				0.41932180523872375,
				1.2652486562728882,
				-0.5070027709007263
			]
		}
	],
	"animations":[
		{
			"channels":[
				{
					"sampler":0,
					"target":{
						"node":0,
						"path":"translation"
					}
				}
			],
			"name":"modelAction",
			"samplers":[
				{
					"input":10,
					"interpolation":"LINEAR",
					"output":11
				}
			]
		}
	],
	"materials":[
		{
			"doubleSided":true,
			"extensions":{
				"KHR_materials_specular":{
					"specularFactor":0
				},
				"KHR_materials_ior":{
					"ior":1.4500000476837158
				}
			},
			"name":"mat20.1536",
			"pbrMetallicRoughness":{
				"baseColorFactor":[
					0.1899999976158142,
					0.09000000357627869,
					0.05999999865889549,
					1
				],
				"metallicFactor":0
			}
		},
		{
			"doubleSided":true,
			"extensions":{
				"KHR_materials_specular":{
					"specularFactor":0
				},
				"KHR_materials_ior":{
					"ior":1.4500000476837158
				}
			},
			"name":"mat19",
			"pbrMetallicRoughness":{
				"baseColorFactor":[
					0.7400000095367432,
					0.33000001311302185,
					0.05999999865889549,
					1
				],
				"metallicFactor":0
			}
		}
	],
	"meshes":[
		{
			"name":"model",
			"primitives":[
				{
					"attributes":{
						"POSITION":0,
						"NORMAL":1
					},
					"indices":2,
					"material":0
				},
				{
					"attributes":{
						"POSITION":3,
						"NORMAL":4
					},
					"indices":5,
					"material":1
				}
			]
		},
		{
			"name":"welcome",
			"primitives":[
				{
					"attributes":{
						"POSITION":6,
						"NORMAL":7,
						"TEXCOORD_0":8
					},
					"indices":9
				}
			]
		}
	],
	"accessors":[
		{
			"bufferView":0,
			"componentType":5126,
			"count":766,
			"max":[
				0.5479480028152466,
				0.027591019868850708,
				0.24271680414676666
			],
			"min":[
				-0.535521924495697,
				-0.05297243967652321,
				-0.3538348972797394
			],
			"type":"VEC3"
		},
		{
			"bufferView":1,
			"componentType":5126,
			"count":766,
			"type":"VEC3"
		},
		{
			"bufferView":2,
			"componentType":5123,
			"count":870,
			"type":"SCALAR"
		},
		{
			"bufferView":3,
			"componentType":5126,
			"count":180,
			"max":[
				0.04249626025557518,
				0.17058199644088745,
				0.9622713923454285
			],
			"min":[
				-0.1200748011469841,
				-0.0003552735142875463,
				-0.39208459854125977
			],
			"type":"VEC3"
		},
		{
			"bufferView":4,
			"componentType":5126,
			"count":180,
			"type":"VEC3"
		},
		{
			"bufferView":5,
			"componentType":5123,
			"count":288,
			"type":"SCALAR"
		},
		{
			"bufferView":6,
			"componentType":5126,
			"count":3367,
			"max":[
				-0.12601979076862335,
				0,
				0.24126002192497253
			],
			"min":[
				-0.678600013256073,
				0,
				0.004519948270171881
			],
			"type":"VEC3"
		},
		{
			"bufferView":7,
			"componentType":5126,
			"count":3367,
			"type":"VEC3"
		},
		{
			"bufferView":8,
			"componentType":5126,
			"count":3367,
			"type":"VEC2"
		},
		{
			"bufferView":9,
			"componentType":5123,
			"count":10041,
			"type":"SCALAR"
		},
		{
			"bufferView":10,
			"componentType":5126,
			"count":73,
			"max":[
				3
			],
			"min":[
				0
			],
			"type":"SCALAR"
		},
		{
			"bufferView":11,
			"componentType":5126,
			"count":73,
			"type":"VEC3"
		}
	],
	"bufferViews":[
		{
			"buffer":0,
			"byteLength":9192,
			"byteOffset":0,
			"target":34962
		},
		{
			"buffer":0,
			"byteLength":9192,
			"byteOffset":9192,
			"target":34962
		},
		{
			"buffer":0,
			"byteLength":1740,
			"byteOffset":18384,
			"target":34963
		},
		{
			"buffer":0,
			"byteLength":2160,
			"byteOffset":20124,
			"target":34962
		},
		{
			"buffer":0,
			"byteLength":2160,
			"byteOffset":22284,
			"target":34962
		},
		{
			"buffer":0,
			"byteLength":576,
			"byteOffset":24444,
			"target":34963
		},
		{
			"buffer":0,
			"byteLength":40404,
			"byteOffset":25020,
			"target":34962
		},
		{
			"buffer":0,
			"byteLength":40404,
			"byteOffset":65424,
			"target":34962
		},
		{
			"buffer":0,
			"byteLength":26936,
			"byteOffset":105828,
			"target":34962
		},
		{
			"buffer":0,
			"byteLength":20082,
			"byteOffset":132764,
			"target":34963
		},
		{
			"buffer":0,
			"byteLength":292,
			"byteOffset":152848
		},
		{
			"buffer":0,
			"byteLength":876,
			"byteOffset":153140
		}
	],
	"buffers":[
		{
			"byteLength":154016,
			"uri":"panneau.bin"
		}
	]
}
