mtllib materials.mtl
v 0.5649999 -0.4066666 -0.02444442
v 0.5649999 -0.4066666 0.05555557
v 0.5649999 0.4133333 0.05555557
v 0.5649999 0.4133333 -0.02444442
v 0.415 -0.4066666 -0.02444442
v 0.415 0.4133333 -0.02444442
v 0.415 0.4133333 0.05555557
v 0.415 -0.4066666 0.05555557
v 0.48 0.4733332 0.05555557
v 0.4899999 0.4733332 -0.02444442
v 0.8649999 -0.4066666 -0.04444448
v 0.8649999 -0.4066666 0.09555551
v 0.8649999 0.4833333 0.09555567
v 0.8649999 0.4833333 -0.04444433
v 0.635 -0.4066666 -0.04444452
v 0.635 0.4833333 -0.04444436
v 0.6349999 0.4833333 0.09555563
v 0.6349999 -0.4066666 0.09555548
v 0.335 -0.4066666 -0.01444448
v 0.335 -0.4066666 0.06555551
v 0.335 0.4133333 0.06555566
v 0.335 0.4133333 -0.01444434
v 0.185 -0.4066666 -0.01444451
v 0.185 0.4133333 -0.01444436
v 0.185 0.4133333 0.06555563
v 0.185 -0.4066666 0.06555549
v 0.25 0.4733332 0.06555566
v 0.26 0.4733332 -0.01444434
v 0.08500001 -0.4066666 -0.01444454
v 0.08499998 -0.4066666 0.06555547
v 0.08499996 0.4133333 0.06555575
v 0.08499999 0.4133333 -0.01444425
v -0.06499998 -0.4066666 -0.01444459
v -0.06499998 0.4133333 -0.0144443
v -0.06500001 0.4133333 0.06555569
v -0.06500001 -0.4066666 0.06555541
v -7.450581E-09 0.4733332 0.06555574
v 0.01000001 0.4733332 -0.01444425
v -0.175 -0.4166664 -0.01444454
v -0.175 -0.4166664 0.06555547
v -0.175 0.4033335 0.06555575
v -0.175 0.4033335 -0.01444425
v -0.325 -0.4166664 -0.01444459
v -0.325 0.4033335 -0.0144443
v -0.325 0.4033335 0.06555569
v -0.325 -0.4166664 0.06555541
v -0.26 0.4633335 0.06555574
v -0.25 0.4633335 -0.01444425
v -0.415 -0.4166666 -0.01444454
v -0.415 -0.4166666 0.06555547
v -0.415 0.4033333 0.06555575
v -0.415 0.4033333 -0.01444425
v -0.565 -0.4166666 -0.01444459
v -0.565 0.4033333 -0.0144443
v -0.565 0.4033333 0.06555569
v -0.565 -0.4166666 0.06555541
v -0.5 0.4633332 0.06555574
v -0.49 0.4633332 -0.01444425
v -0.655 -0.4266666 -0.04444442
v -0.655 -0.4266666 0.09555557
v -0.655 0.4633334 0.09555557
v -0.655 0.4633334 -0.04444442
v -0.885 -0.4266666 -0.04444442
v -0.885 0.4633334 -0.04444442
v -0.885 0.4633334 0.09555557
v -0.885 -0.4266666 0.09555557
v -0.6650002 0.2133336 -0.03444444
v 0.6550002 0.2133334 -0.03444459
v 0.6550002 0.2933333 -0.03444459
v -0.6650002 0.2933335 -0.03444444
v -0.665 0.2133336 -0.02444442
v -0.665 0.2933335 -0.02444442
v 0.6550001 0.2933333 -0.02444457
v 0.655 0.2133334 -0.02444457
v -0.6550002 -0.3466665 -0.03444444
v 0.6650001 -0.3466667 -0.03444459
v 0.6650002 -0.2666668 -0.03444459
v -0.6550002 -0.2666665 -0.03444444
v -0.655 -0.3466665 -0.02444442
v -0.655 -0.2666665 -0.02444442
v 0.6650001 -0.2666668 -0.02444457
v 0.665 -0.3466667 -0.02444457
vn 1 1.027862E-08 0
vn -1 -1.192547E-09 0
vn 0 -1 -1.291434E-07
vn 0.5766829 0.8169681 9.45261E-08
vn 1.996172E-08 0 -1
vn 1.8606E-08 0 1
vn -0.6782795 0.734804 -1.91194E-07
vn 0.6227988 0.7784992 0.07785018
vn -0.6227987 0.7784995 -0.07784916
vn 1 -4.735842E-09 1.748456E-07
vn -1 4.735842E-09 -1.748456E-07
vn 1.435598E-14 -1 -8.210665E-08
vn -1.435598E-14 1 8.210665E-08
vn 1.695897E-07 1.748456E-07 -1
vn -1.695897E-07 -1.748456E-07 1
vn 1 1.027862E-08 1.748456E-07
vn -1 -1.192547E-09 -1.748456E-07
vn 5.315112E-14 -1 -3.039889E-07
vn 0.5766829 0.8169681 3.381998E-07
vn 1.948073E-07 1.748456E-07 -1
vn -1.562396E-07 -1.748456E-07 1
vn -0.6782795 0.734804 -1.813109E-07
vn 0.6227988 0.7784992 0.07785042
vn -0.6227987 0.7784995 -0.07784913
vn 1 1.027859E-08 3.496911E-07
vn -1 -1.192517E-09 -3.496911E-07
vn 1.368732E-13 -1 -4.788345E-07
vn 0.5766829 0.8169681 5.818735E-07
vn 3.696528E-07 3.496911E-07 -1
vn -3.310851E-07 -3.496911E-07 1
vn -0.6782795 0.734804 -1.714279E-07
vn 0.6227988 0.7784992 0.07785067
vn -0.6227987 0.7784995 -0.07784911
vn 1 1.027859E-08 3.496911E-07
vn -1 -1.192517E-09 -3.496911E-07
vn 1.368732E-13 -1 -4.788345E-07
vn 0.5766829 0.8169681 5.818735E-07
vn 3.696528E-07 3.496911E-07 -1
vn -3.310851E-07 -3.496911E-07 1
vn -0.6782795 0.734804 -1.714279E-07
vn 0.6227988 0.7784992 0.07785067
vn -0.6227987 0.7784995 -0.07784911
vn 1 1.027859E-08 3.496911E-07
vn -1 -1.192517E-09 -3.496911E-07
vn 1.368732E-13 -1 -4.788345E-07
vn 0.5766829 0.8169681 5.818735E-07
vn 3.696528E-07 3.496911E-07 -1
vn -3.310851E-07 -3.496911E-07 1
vn -0.6782795 0.734804 -1.714279E-07
vn 0.6227988 0.7784992 0.07785067
vn -0.6227987 0.7784995 -0.07784911
vn 1 -4.735842E-09 0
vn -1 4.735842E-09 0
vn 0 -1 9.273891E-08
vn 0 1 -9.273891E-08
vn -5.255808E-09 0 -1
vn 5.255808E-09 0 1
vn -1.107427E-07 -1.5381E-08 -1
vn 1.192093E-07 1.992466E-08 1
vn -1.781373E-07 -1 -3.72528E-06
vn 1.781365E-07 1 -3.725281E-06
vn -1 1.748457E-07 1.975517E-05
vn 1 -1.748456E-07 1.107154E-05
vn -1.107427E-07 -1.5381E-08 -1
vn 1.192093E-07 1.992466E-08 1
vn -1.781373E-07 -1 -3.72528E-06
vn 1.781365E-07 1 -3.725281E-06
vn -1 1.748457E-07 1.975517E-05
vn 1 -1.748456E-07 1.107154E-05
vt 0.04859151 0.08695323
vt 0.05510138 0.08230332
vt 0.1027629 0.1490295
vt 0.09625305 0.1536794
vt -0.04859151 0.08695323
vt -0.09625305 0.1536794
vt -0.1027629 0.1490295
vt -0.05510138 0.08230332
vt 0.01217537 0.06679641
vt 0.007130323 0.05267028
vt 0.01466426 0.04997959
vt 0.0197093 0.06410571
vt 0.03690565 -0.03497676
vt 0.03027673 -0.0394553
vt 0.03610124 -0.04807649
vt -0.05858498 0.1042008
vt -0.131928 0.1408723
vt -0.1406487 0.1368473
vt -0.1386362 0.1274559
vt -0.06529318 0.09078436
vt 0.05858498 0.1042008
vt 0.06529318 0.09078436
vt 0.1386362 0.1274559
vt 0.1410959 0.1359529
vt 0.131928 0.1408723
vt -0.05074323 0.1620938
vt -0.04795181 0.1536999
vt -0.04036057 0.1562244
vt 0.06101355 -0.04042027
vt 0.06636219 -0.03438769
vt 0.05982642 -0.02734967
vt -0.04742038 0.1461968
vt -0.05053154 0.1552836
vt -0.05787031 0.1519456
vt 0.04696405 0.08811571
vt 0.05835631 0.07997837
vt 0.1100865 0.1524006
vt 0.09869427 0.160538
vt -0.04696405 0.08811571
vt -0.09869427 0.160538
vt -0.1100865 0.1524006
vt -0.05835631 0.07997837
vt 0.02038198 0.09572134
vt 0.01264624 0.07406128
vt 0.02583062 0.06935257
vt 0.03356636 0.09101262
vt -0.02038198 0.09572133
vt -0.03356637 0.09101262
vt -0.02583063 0.06935256
vt -0.01264624 0.07406127
vt -0.04516857 0.1310336
vt -0.1247726 0.1708356
vt -0.1350585 0.1502638
vt -0.05545449 0.1104618
vt 0.04516858 0.1310336
vt 0.05545449 0.1104618
vt 0.1350585 0.1502638
vt 0.1247726 0.1708356
vt 0.04940525 0.08637198
vt 0.05591512 0.08172207
vt 0.1035767 0.1484482
vt 0.0970668 0.1530981
vt -0.04940525 0.08637198
vt -0.0970668 0.1530981
vt -0.1035767 0.1484482
vt -0.05591512 0.08172207
vt 0.005381355 0.04480002
vt 0.0003363039 0.03067389
vt 0.007870237 0.0279832
vt 0.01291529 0.04210933
vt 0.0465962 -0.05110646
vt 0.03996727 -0.05558501
vt 0.0457918 -0.06420619
vt -0.06887089 0.08362894
vt -0.1422139 0.1203004
vt -0.1509346 0.1162755
vt -0.1489221 0.106884
vt -0.07557909 0.07021253
vt 0.06887089 0.08362894
vt 0.07557909 0.07021253
vt 0.1489221 0.106884
vt 0.1513818 0.1153811
vt 0.1422139 0.1203004
vt -0.04635901 0.1457413
vt -0.04356759 0.1373474
vt -0.03597634 0.1398719
vt 0.07168476 -0.05502031
vt 0.0770334 -0.04898773
vt 0.07049763 -0.04194972
vt -0.04360421 0.1285198
vt -0.04671537 0.1376067
vt -0.05405414 0.1342687
vt 0.04940527 0.08637197
vt 0.05591514 0.08172207
vt 0.1035767 0.1484482
vt 0.09706686 0.1530981
vt -0.04940527 0.08637197
vt -0.09706686 0.1530981
vt -0.1035767 0.1484482
vt -0.05591514 0.08172207
vt -0.003027078 0.02125648
vt -0.008072132 0.007130357
vt -0.000538198 0.004439662
vt 0.004506856 0.01856579
vt 0.05803006 -0.06803025
vt 0.05140114 -0.0725088
vt 0.05722567 -0.08112998
vt -0.08005122 0.06126825
vt -0.1533943 0.09793976
vt -0.1621149 0.09391484
vt -0.1601025 0.08452335
vt -0.08675943 0.04785184
vt 0.08005123 0.06126825
vt 0.08675943 0.04785185
vt 0.1601025 0.08452336
vt 0.1625621 0.09302041
vt 0.1533943 0.09793976
vt -0.04056213 0.1283098
vt -0.03777071 0.1199159
vt -0.03017947 0.1224404
vt 0.08407798 -0.07015252
vt 0.08942661 -0.06411993
vt 0.08289085 -0.05708192
vt -0.03843097 0.1096568
vt -0.04154213 0.1187437
vt -0.0488809 0.1154056
vt 0.04882405 0.08555826
vt 0.05533392 0.08090835
vt 0.1029955 0.1476344
vt 0.09648564 0.1522844
vt -0.04882405 0.08555826
vt -0.09648564 0.1522844
vt -0.1029955 0.1476344
vt -0.05533392 0.08090835
vt -0.01177183 -0.003228806
vt -0.01681688 -0.01735493
vt -0.009282948 -0.02004563
vt -0.004237895 -0.005919502
vt 0.06959841 -0.08515318
vt 0.06296949 -0.08963173
vt 0.06879402 -0.09825291
vt -0.09078437 0.03756594
vt -0.1641274 0.07423745
vt -0.172848 0.07021253
vt -0.1708356 0.06082105
vt -0.09749257 0.02414953
vt 0.09078437 0.03756594
vt 0.09749258 0.02414954
vt 0.1708356 0.06082105
vt 0.1732953 0.0693181
vt 0.1641274 0.07423745
vt -0.03431934 0.1095375
vt -0.03152791 0.1011436
vt -0.02393667 0.103668
vt 0.09649727 -0.08547369
vt 0.1018459 -0.07944109
vt 0.09531013 -0.07240309
vt -0.03279094 0.08946797
vt -0.0359021 0.0985548
vt -0.04324087 0.09521678
vt 0.04882405 0.08555824
vt 0.05533391 0.08090832
vt 0.1029955 0.1476344
vt 0.09648563 0.1522843
vt -0.04882405 0.08555824
vt -0.09648563 0.1522843
vt -0.1029955 0.1476344
vt -0.05533391 0.08090832
vt -0.01984391 -0.02583061
vt -0.02488896 -0.03995674
vt -0.01735503 -0.04264743
vt -0.01230997 -0.0285213
vt 0.08057489 -0.1014
vt 0.07394595 -0.1058786
vt 0.07977048 -0.1144998
vt -0.1015175 0.01609968
vt -0.1748605 0.05277119
vt -0.1835811 0.04874626
vt -0.1815687 0.03935478
vt -0.1082257 0.002683268
vt 0.1015175 0.01609968
vt 0.1082257 0.00268327
vt 0.1815687 0.03935478
vt 0.1840284 0.04785184
vt 0.1748605 0.05277119
vt -0.02875432 0.09280323
vt -0.0259629 0.08440931
vt -0.01837166 0.08693381
vt 0.1083947 -0.1000006
vt 0.1137433 -0.09396805
vt 0.1072076 -0.08693004
vt -0.02782461 0.07135945
vt -0.03093578 0.08044629
vt -0.03827455 0.07710826
vt 0.04580157 0.08648825
vt 0.05719385 0.07835091
vt 0.108924 0.1507732
vt 0.09753178 0.1589105
vt -0.04580157 0.08648825
vt -0.09753178 0.1589105
vt -0.108924 0.1507732
vt -0.05719385 0.07835091
vt -0.03074113 -0.04742343
vt -0.03847687 -0.0690835
vt -0.02529249 -0.0737922
vt -0.01755675 -0.05213214
vt 0.03074113 -0.04742343
vt 0.01755674 -0.05213214
vt 0.02529248 -0.07379221
vt 0.03847686 -0.0690835
vt -0.1113562 -0.005813774
vt -0.1909602 0.03398823
vt -0.2012461 0.01341641
vt -0.1216421 -0.0263856
vt 0.1113562 -0.005813774
vt 0.1216421 -0.0263856
vt 0.2012461 0.01341641
vt 0.1909602 0.03398823
vt -0.1690468 0.02191345
vt -0.1100145 0.1399779
vt -0.1171699 0.1435556
vt -0.1762022 0.02549116
vt 0.1690468 0.02191347
vt 0.1762022 0.02549117
vt 0.11717 0.1435556
vt 0.1100145 0.1399779
vt -0.03013641 -0.0487013
vt -0.02919466 -0.04903762
vt 0.01520195 0.07527225
vt 0.01426021 0.0756086
vt 0.03013509 -0.04870182
vt -0.01426112 0.07560824
vt -0.01520286 0.07527189
vt 0.02919334 -0.04903813
vt -0.08381002 0.1379888
vt -0.08845975 0.1444988
vt -0.0892735 0.1439176
vt -0.08462377 0.1374076
vt 0.08381587 0.1379852
vt 0.08462959 0.137404
vt 0.08927958 0.1439138
vt 0.08846585 0.144495
vt -0.1185116 -0.002236084
vt -0.05947939 0.1158283
vt -0.0666348 0.119406
vt -0.125667 0.001341622
vt 0.1185116 -0.002236068
vt 0.125667 0.001341637
vt 0.0666348 0.119406
vt 0.0594794 0.1158283
vt -0.02979987 -0.04775962
vt -0.02885812 -0.04809595
vt 0.01553848 0.07621393
vt 0.01459674 0.07655028
vt 0.02979895 -0.04775999
vt -0.01459726 0.07655005
vt -0.015539 0.07621371
vt 0.0288572 -0.04809631
vt -0.05126189 0.09241886
vt -0.05591162 0.09892884
vt -0.05672537 0.09834762
vt -0.05207564 0.09183763
vt 0.05126585 0.09241663
vt 0.05207958 0.09183539
vt 0.05672957 0.09834518
vt 0.05591584 0.09892643
o group1536254822
g mesh1536254822
usemtl mat21
f 4/4/1 3/3/1 2/2/1 1/1/1
f 8/8/2 7/7/2 6/6/2 5/5/2
f 2/12/3 8/11/3 5/10/3 1/9/3
f 9/15/4 3/14/4 4/13/4
f 5/20/5 6/19/5 10/18/5 4/17/5 1/16/5
f 3/25/6 9/24/6 7/23/6 8/22/6 2/21/6
f 6/28/7 7/27/7 9/26/7
f 4/31/8 10/30/8 9/29/8
f 9/34/9 10/33/9 6/32/9
o group2112446589
g mesh2112446589
usemtl mat21
f 14/38/10 13/37/10 12/36/10 11/35/10
f 18/42/11 17/41/11 16/40/11 15/39/11
f 12/46/12 18/45/12 15/44/12 11/43/12
f 16/50/13 17/49/13 13/48/13 14/47/13
f 15/54/14 16/53/14 14/52/14 11/51/14
f 13/58/15 17/57/15 18/56/15 12/55/15
o group1591622163
g mesh1591622163
usemtl mat21
f 22/62/16 21/61/16 20/60/16 19/59/16
f 26/66/17 25/65/17 24/64/17 23/63/17
f 20/70/18 26/69/18 23/68/18 19/67/18
f 27/73/19 21/72/19 22/71/19
f 23/78/20 24/77/20 28/76/20 22/75/20 19/74/20
f 21/83/21 27/82/21 25/81/21 26/80/21 20/79/21
f 24/86/22 25/85/22 27/84/22
f 22/89/23 28/88/23 27/87/23
f 27/92/24 28/91/24 24/90/24
o group522198082
g mesh522198082
usemtl mat21
f 32/96/25 31/95/25 30/94/25 29/93/25
f 36/100/26 35/99/26 34/98/26 33/97/26
f 30/104/27 36/103/27 33/102/27 29/101/27
f 37/107/28 31/106/28 32/105/28
f 33/112/29 34/111/29 38/110/29 32/109/29 29/108/29
f 31/117/30 37/116/30 35/115/30 36/114/30 30/113/30
f 34/120/31 35/119/31 37/118/31
f 32/123/32 38/122/32 37/121/32
f 37/126/33 38/125/33 34/124/33
o group1161036655
g mesh1161036655
usemtl mat21
f 42/130/34 41/129/34 40/128/34 39/127/34
f 46/134/35 45/133/35 44/132/35 43/131/35
f 40/138/36 46/137/36 43/136/36 39/135/36
f 47/141/37 41/140/37 42/139/37
f 43/146/38 44/145/38 48/144/38 42/143/38 39/142/38
f 41/151/39 47/150/39 45/149/39 46/148/39 40/147/39
f 44/154/40 45/153/40 47/152/40
f 42/157/41 48/156/41 47/155/41
f 47/160/42 48/159/42 44/158/42
o group2066174015
g mesh2066174015
usemtl mat21
f 52/164/43 51/163/43 50/162/43 49/161/43
f 56/168/44 55/167/44 54/166/44 53/165/44
f 50/172/45 56/171/45 53/170/45 49/169/45
f 57/175/46 51/174/46 52/173/46
f 53/180/47 54/179/47 58/178/47 52/177/47 49/176/47
f 51/185/48 57/184/48 55/183/48 56/182/48 50/181/48
f 54/188/49 55/187/49 57/186/49
f 52/191/50 58/190/50 57/189/50
f 57/194/51 58/193/51 54/192/51
o group1182910275
g mesh1182910275
usemtl mat21
f 62/198/52 61/197/52 60/196/52 59/195/52
f 66/202/53 65/201/53 64/200/53 63/199/53
f 60/206/54 66/205/54 63/204/54 59/203/54
f 64/210/55 65/209/55 61/208/55 62/207/55
f 63/214/56 64/213/56 62/212/56 59/211/56
f 61/218/57 65/217/57 66/216/57 60/215/57
o group662635147
g mesh662635147
usemtl mat21
f 70/222/58 69/221/58 68/220/58 67/219/58
f 74/226/59 73/225/59 72/224/59 71/223/59
f 68/230/60 74/229/60 71/228/60 67/227/60
f 72/234/61 73/233/61 69/232/61 70/231/61
f 71/238/62 72/237/62 70/236/62 67/235/62
f 69/242/63 73/241/63 74/240/63 68/239/63
o group767324346
g mesh767324346
usemtl mat21
f 78/246/64 77/245/64 76/244/64 75/243/64
f 82/250/65 81/249/65 80/248/65 79/247/65
f 76/254/66 82/253/66 79/252/66 75/251/66
f 80/258/67 81/257/67 77/256/67 78/255/67
f 79/262/68 80/261/68 78/260/68 75/259/68
f 77/266/69 81/265/69 82/264/69 76/263/69
